<mxfile host="app.diagrams.net" modified="2023-04-26T12:50:37.903Z" agent="Mozilla/5.0 (Macintosh; Intel Mac OS X 10_15_7) AppleWebKit/537.36 (KHTML, like Gecko) Chrome/112.0.0.0 Safari/537.36" version="21.1.5" etag="tIkxA1trVHiH4Xw7Gon8" type="github">
  <diagram name="第 1 页" id="DoOU_J75DSZ_QsQKMMEw">
    <mxGraphModel>
      <root>
        <mxCell id="0" />
        <mxCell id="1" parent="0" />
      </root>
    </mxGraphModel>
  </diagram>
</mxfile>
